<svg width="15" height="15" viewBox="0 0 576 576" xmlns="http://www.w3.org/2000/svg"><path d="M550.188 213.82c-9.663-6.625-21.026-10.127-32.859-10.127h-52.383V61.895c0-32.058-26.082-58.14-58.14-58.14H168.639c-32.058 0-58.14 26.082-58.14 58.14v141.798H58.115c-11.833 0-23.195 3.502-32.858 10.127-8.913 6.109-15.942 14.595-20.331 24.536C.538 248.299-.993 259.21.499 269.913c1.617 11.604 6.688 22.359 14.662 31.102l229.607 251.714c10.99 12.048 26.646 18.958 42.954 18.958s31.964-6.91 42.955-18.959l229.606-251.713c7.975-8.742 13.045-19.497 14.662-31.102 1.492-10.702-.039-21.614-4.427-31.556s-11.418-18.427-20.33-24.537z" stroke="#000"/><path d="M528.632 272.145L299.025 523.858a15.241 15.241 0 01-11.304 4.989 15.24 15.24 0 01-11.303-4.989L46.811 272.144c-8.959-9.822-1.99-25.611 11.304-25.611h79.924c8.45 0 15.3-6.851 15.3-15.3V61.895c0-8.449 6.851-15.3 15.3-15.3h238.166c8.45 0 15.3 6.851 15.3 15.3v169.338c0 8.449 6.85 15.3 15.3 15.3h79.924c13.295 0 20.263 15.788 11.303 25.612z" fill="#e1e6e8"/></svg>